<?xml version="1.0" encoding="utf-8"?>
<!-- Generator: Adobe Illustrator 16.0.0, SVG Export Plug-In . SVG Version: 6.00 Build 0)  -->
<!DOCTYPE svg PUBLIC "-//W3C//DTD SVG 1.1//EN" "http://www.w3.org/Graphics/SVG/1.1/DTD/svg11.dtd">
<svg version="1.1" id="" xmlns="http://www.w3.org/2000/svg" xmlns:xlink="http://www.w3.org/1999/xlink" x="0px" y="0px"
	 width="30px" height="24px" viewBox="-3 0 30 24" enable-background="new -3 0 30 24" xml:space="preserve">
<polygon display="none" fill="#231F20" points="0.4,10.7 11.4,2.2 12.8,2.2 23.8,10.7 22,21 19.1,22.3 16.9,22.9 12.7,23.4
	11.4,23.4 6.7,22.8 4.2,22 2.2,21.1 "/>
<g>
	<path fill="#b7ac92" d="M16.9,22.9L12.7,2.5L12.6,2.2v21.2C14.1,23.4,15.6,23.2,16.9,22.9z"/>
	<path fill="#b7ac92" d="M7.9,19.4l-7.5-8.7l6.4,12.1c1.5,0.4,3,0.601,4.7,0.601V2.2l-0.1,0.3L7.9,19.4z"/>
	<path fill="#b7ac92" d="M20.9,19.4L12.7,2.2L19.1,22.3c1-0.399,2-0.8,2.9-1.3l1.8-10.3L20.9,19.4z"/>
	<path fill="#b7ac92" d="M4.2,22L0.4,10.7L2.2,21C2.8,21.4,3.5,21.7,4.2,22z"/>
</g>
</svg>
