<?xml version="1.0" encoding="utf-8"?>
<!-- Generator: Adobe Illustrator 16.0.0, SVG Export Plug-In . SVG Version: 6.00 Build 0)  -->
<!DOCTYPE svg PUBLIC "-//W3C//DTD SVG 1.1//EN" "http://www.w3.org/Graphics/SVG/1.1/DTD/svg11.dtd">
<svg version="1.1" id="Слой_1" xmlns="http://www.w3.org/2000/svg" xmlns:xlink="http://www.w3.org/1999/xlink" x="0px" y="0px"
	 width="22px" height="18px" viewBox="1 3 22 18" enable-background="new 1 3 22 18" xml:space="preserve">
<path d="M20,3H4C2.346,3,1,4.346,1,6v12c0,1.654,1.346,3,3,3h16c1.654,0,3-1.346,3-3V6C23,4.346,21.654,3,20,3z M4,5h16
	c0.392,0,0.722,0.231,0.886,0.559L12,11.779l-8.886-6.22C3.278,5.231,3.609,5,4,5z M20,19H4c-0.551,0-1-0.448-1-1V7.92l8.427,5.899
	C11.599,13.939,11.799,14,12,14s0.401-0.061,0.573-0.181L21,7.92V18C21,18.552,20.552,19,20,19z"/>
</svg>
