<?xml version="1.0" encoding="utf-8"?>
<!-- Generator: Adobe Illustrator 16.0.0, SVG Export Plug-In . SVG Version: 6.00 Build 0)  -->
<!DOCTYPE svg PUBLIC "-//W3C//DTD SVG 1.1//EN" "http://www.w3.org/Graphics/SVG/1.1/DTD/svg11.dtd">
<svg version="1.1" id="Слой_1" xmlns="http://www.w3.org/2000/svg" xmlns:xlink="http://www.w3.org/1999/xlink" x="0px" y="0px"
	 width="20px" height="22px" viewBox="2 1 20 22" enable-background="new 2 1 20 22" xml:space="preserve">
<path d="M19,3h-2V2c0-0.552-0.447-1-1-1s-1,0.448-1,1v1H9V2c0-0.552-0.448-1-1-1S7,1.448,7,2v1H5C3.346,3,2,4.346,2,6v14
	c0,1.654,1.346,3,3,3h14c1.654,0,3-1.346,3-3V6C22,4.346,20.654,3,19,3z M5,5h2v1c0,0.552,0.448,1,1,1s1-0.448,1-1V5h6v1
	c0,0.552,0.447,1,1,1s1-0.448,1-1V5h2c0.552,0,1,0.449,1,1v3H4V6C4,5.449,4.449,5,5,5z M19,21H5c-0.551,0-1-0.448-1-1v-9h16v9
	C20,20.552,19.552,21,19,21z"/>
</svg>
