<svg width="240" height="77" viewBox="0 0 240 77" fill="none" xmlns="http://www.w3.org/2000/svg">
<path d="M29 11C27.7333 11.6333 25.8167 13.9667 23.25 18C20.7167 22.0333 18.5 25.9 16.6 29.6L13.7 35.2C9.03333 44.4 5.71667 50.1667 3.75 52.5C0.783333 55.9333 -1.91667 57.65 -4.35 57.65C-5.11667 57.65 -5.5 57.5167 -5.5 57.25C-5.5 57.15 -5.43333 57.0167 -5.3 56.85C-5.16667 56.7167 -5.03333 56.6 -4.9 56.5L-4.75 56.4C-3.28333 55.3 -1.35 52.8667 1.05 49.1C3.48333 45.3667 5.53333 41.9 7.2 38.7L9.7 33.95C11.6667 30.3167 13.55 27.0667 15.35 24.2C17.1833 21.3333 18.6833 19.15 19.85 17.65C21.0167 16.15 22.0333 14.9167 22.9 13.95C23.8 12.95 24.45 12.3167 24.85 12.05L25.45 11.65C25.55 11.55 25.6 11.45 25.6 11.35C25.6 11.0167 25.0667 10.85 24 10.85C23 10.85 22 11.1333 21 11.7C20.0333 12.2333 19.2 12.8833 18.5 13.65C17.8333 14.4167 17.2333 15.1833 16.7 15.95C16.1667 16.7167 15.7667 17.3667 15.5 17.9L15.1 18.75C14.9333 19.2833 14.7333 19.55 14.5 19.55C13.9333 19.55 13.65 18.8167 13.65 17.35C13.65 14.8167 14.75 12.8833 16.95 11.55C19.15 10.1833 21.8667 9.5 25.1 9.5C28.2333 9.5 29.8 9.78333 29.8 10.35C29.8 10.55 29.5333 10.7667 29 11ZM27.373 31.05C27.773 30.2167 27.973 29.4833 27.973 28.85C27.973 28.3167 27.8064 28.05 27.473 28.05C27.273 28.05 27.0397 28.1167 26.773 28.25C26.5397 28.35 26.3564 28.4667 26.223 28.6L25.973 28.8C24.9397 29.7 23.6397 31.35 22.073 33.75C20.5397 36.1167 19.773 37.6333 19.773 38.3C19.773 38.4333 19.8064 38.5 19.873 38.5C20.073 38.5 20.5064 38.3333 21.173 38C21.873 37.6667 22.8564 36.8833 24.123 35.65C25.423 34.4167 26.5064 32.8833 27.373 31.05ZM25.123 42.5C26.8897 40.8667 29.423 38.1667 32.723 34.4C32.823 34.3 32.9064 34.25 32.973 34.25C33.0397 34.25 33.073 34.3167 33.073 34.45C33.073 35.0833 32.823 35.7 32.323 36.3C29.8564 39.0333 27.673 41.3167 25.773 43.15C24.373 44.55 22.7064 45.9 20.773 47.2C18.8397 48.4667 17.2397 49.1 15.973 49.1C14.4397 49.1 13.673 48.0333 13.673 45.9C13.673 42.3667 14.973 38.6667 17.573 34.8C20.2064 30.9333 23.2397 28.3167 26.673 26.95C28.1064 26.35 29.4064 26.05 30.573 26.05C31.873 26.05 32.523 26.5667 32.523 27.6C32.523 29.5333 31.1564 31.75 28.423 34.25C25.6897 36.75 22.623 38.65 19.223 39.95C19.0897 39.9833 18.973 40.1 18.873 40.3C18.373 41.6667 18.123 42.8833 18.123 43.95C18.123 45.15 18.573 45.75 19.473 45.75C20.9064 45.75 22.7897 44.6667 25.123 42.5ZM48.2285 38.6C46.3952 40.8667 44.6952 42.85 43.1285 44.55C41.5952 46.2167 40.5118 47.3333 39.8785 47.9L38.9285 48.7C38.3952 49.1333 37.9785 49.35 37.6785 49.35C37.3118 49.35 37.1285 49.05 37.1285 48.45C37.1285 47.0167 37.8952 43.8333 39.4285 38.9L39.1285 39.05C37.4285 41.15 35.8285 43.0167 34.3285 44.65C32.8618 46.25 31.8118 47.3333 31.1785 47.9L30.2285 48.7C29.6952 49.1333 29.2785 49.35 28.9785 49.35C28.6118 49.35 28.4285 49.05 28.4285 48.45C28.4285 46.7833 29.1618 43.7333 30.6285 39.3C32.0952 34.8333 33.5285 31.2833 34.9285 28.65C35.2952 27.95 35.8285 27.35 36.5285 26.85C37.2285 26.35 37.9785 26.1 38.7785 26.1C39.0118 26.1 39.1285 26.2 39.1285 26.4C39.1285 26.6 38.9952 26.9667 38.7285 27.5C37.7952 29.4333 36.6452 32.2333 35.2785 35.9C33.9118 39.5333 33.2285 42.05 33.2285 43.45C33.2285 43.6167 33.2618 43.7 33.3285 43.7C33.4618 43.7 33.6952 43.5167 34.0285 43.15C34.4285 42.7833 34.9452 42.2833 35.5785 41.65C36.2118 41.0167 37.1785 39.9 38.4785 38.3C39.7785 36.6667 40.6952 35.2333 41.2285 34L43.6285 28.65C44.1618 27.7833 44.7618 27.15 45.4285 26.75C46.1285 26.3167 46.7452 26.1 47.2785 26.1C47.6785 26.1 47.8785 26.2 47.8785 26.4C47.8785 26.5333 47.7285 26.9 47.4285 27.5C44.5285 33.5333 42.7118 38.6833 41.9785 42.95C41.9452 43.0833 41.9285 43.2167 41.9285 43.35C41.9285 43.55 41.9785 43.65 42.0785 43.65C42.3118 43.65 43.1452 42.8833 44.5785 41.35C46.0118 39.7833 46.9785 38.6 47.4785 37.8C47.5452 37.6667 47.5785 37.5333 47.5785 37.4C47.4452 37.1 47.3785 36.7 47.3785 36.2C47.3785 34.2 48.3785 31.9833 50.3785 29.55C52.4118 27.0833 54.4618 25.4667 56.5285 24.7C56.7285 24.6333 56.8618 24.6 56.9285 24.6C57.1285 24.6 57.2285 24.6833 57.2285 24.85C57.1952 25.7833 54.6785 29.8 49.6785 36.9C49.5785 37.0333 49.5285 37.1333 49.5285 37.2C49.5285 37.3333 49.5785 37.4167 49.6785 37.45C50.0785 37.65 50.4785 37.75 50.8785 37.75C52.3785 37.75 54.1785 36.5 56.2785 34C56.3452 33.9333 56.3952 33.9 56.4285 33.9C56.5952 33.9 56.6785 34.0833 56.6785 34.45C56.6785 34.8167 56.2785 35.45 55.4785 36.35C54.0118 38.0167 52.3285 38.85 50.4285 38.85C49.7618 38.85 49.1118 38.7167 48.4785 38.45L48.2285 38.6ZM64.873 31.05C65.273 30.2167 65.473 29.4833 65.473 28.85C65.473 28.3167 65.3064 28.05 64.973 28.05C64.773 28.05 64.5397 28.1167 64.273 28.25C64.0397 28.35 63.8564 28.4667 63.723 28.6L63.473 28.8C62.4397 29.7 61.1397 31.35 59.573 33.75C58.0397 36.1167 57.273 37.6333 57.273 38.3C57.273 38.4333 57.3064 38.5 57.373 38.5C57.573 38.5 58.0064 38.3333 58.673 38C59.373 37.6667 60.3564 36.8833 61.623 35.65C62.923 34.4167 64.0064 32.8833 64.873 31.05ZM62.623 42.5C64.3897 40.8667 66.923 38.1667 70.223 34.4C70.323 34.3 70.4064 34.25 70.473 34.25C70.5397 34.25 70.573 34.3167 70.573 34.45C70.573 35.0833 70.323 35.7 69.823 36.3C67.3564 39.0333 65.173 41.3167 63.273 43.15C61.873 44.55 60.2064 45.9 58.273 47.2C56.3397 48.4667 54.7397 49.1 53.473 49.1C51.9397 49.1 51.173 48.0333 51.173 45.9C51.173 42.3667 52.473 38.6667 55.073 34.8C57.7064 30.9333 60.7397 28.3167 64.173 26.95C65.6064 26.35 66.9064 26.05 68.073 26.05C69.373 26.05 70.023 26.5667 70.023 27.6C70.023 29.5333 68.6564 31.75 65.923 34.25C63.1897 36.75 60.123 38.65 56.723 39.95C56.5897 39.9833 56.473 40.1 56.373 40.3C55.873 41.6667 55.623 42.8833 55.623 43.95C55.623 45.15 56.073 45.75 56.973 45.75C58.4064 45.75 60.2897 44.6667 62.623 42.5ZM80.0285 23.65C82.3952 21.9833 84.5118 20.1 86.3785 18C88.2785 15.8667 89.7118 13.9167 90.6785 12.15C91.6785 10.35 92.4285 8.8 92.9285 7.5C93.4285 6.2 93.6785 5.26667 93.6785 4.7C93.6785 4.36667 93.5618 4.2 93.3285 4.2C92.8618 4.2 92.2952 4.53333 91.6285 5.2C90.3618 6.46667 88.9285 8.3 87.3285 10.7C85.7285 13.1 84.4285 15.1667 83.4285 16.9C82.4618 18.6 81.1952 20.8833 79.6285 23.75C79.7618 23.75 79.8952 23.7167 80.0285 23.65ZM74.6785 40.45C76.0785 39.05 77.9285 37.0333 80.2285 34.4C80.3285 34.3 80.4118 34.25 80.4785 34.25C80.5452 34.25 80.5785 34.3167 80.5785 34.45C80.5785 35.0833 80.3285 35.7 79.8285 36.3C77.3618 39.0333 75.1785 41.3167 73.2785 43.15C69.1118 47.0833 66.4618 49.05 65.3285 49.05C64.8285 49.05 64.5785 48.7 64.5785 48C64.5785 47.6333 64.6285 47.2333 64.7285 46.8C64.7952 46.3667 64.9285 45.9 65.1285 45.4C65.3285 44.8667 65.4952 44.4333 65.6285 44.1C65.7952 43.7333 66.0118 43.2333 66.2785 42.6C66.5785 41.9333 66.7785 41.4833 66.8785 41.25C67.8118 39.15 70.6785 33.6167 75.4785 24.65C82.0452 12.6833 88.0785 5.33333 93.5785 2.6C94.3785 2.2 95.1785 2 95.9785 2C96.9118 2 97.3785 2.43333 97.3785 3.3C97.3785 5.3 96.6952 7.5 95.3285 9.9C93.9618 12.2667 92.2952 14.45 90.3285 16.45C88.3618 18.45 86.4285 20.2 84.5285 21.7C82.6618 23.2 81.0452 24.3333 79.6785 25.1C79.4785 25.1667 79.2952 25.3167 79.1285 25.55C77.6618 27.9167 76.2285 30.4667 74.8285 33.2C73.4285 35.9 72.3785 38.0333 71.6785 39.6L70.6785 41.9C70.5118 42.4 70.4285 42.7333 70.4285 42.9C70.4285 43.2 70.5452 43.35 70.7785 43.35C71.4452 43.35 72.7452 42.3833 74.6785 40.45ZM91.6008 23.65C93.9674 21.9833 96.0841 20.1 97.9508 18C99.8508 15.8667 101.284 13.9167 102.251 12.15C103.251 10.35 104.001 8.8 104.501 7.5C105.001 6.2 105.251 5.26667 105.251 4.7C105.251 4.36667 105.134 4.2 104.901 4.2C104.434 4.2 103.867 4.53333 103.201 5.2C101.934 6.46667 100.501 8.3 98.9008 10.7C97.3008 13.1 96.0008 15.1667 95.0008 16.9C94.0341 18.6 92.7674 20.8833 91.2008 23.75C91.3341 23.75 91.4674 23.7167 91.6008 23.65ZM86.2508 40.45C87.6508 39.05 89.5008 37.0333 91.8008 34.4C91.9008 34.3 91.9841 34.25 92.0508 34.25C92.1174 34.25 92.1508 34.3167 92.1508 34.45C92.1508 35.0833 91.9008 35.7 91.4008 36.3C88.9341 39.0333 86.7508 41.3167 84.8508 43.15C80.6841 47.0833 78.0341 49.05 76.9008 49.05C76.4008 49.05 76.1508 48.7 76.1508 48C76.1508 47.6333 76.2008 47.2333 76.3008 46.8C76.3674 46.3667 76.5008 45.9 76.7008 45.4C76.9008 44.8667 77.0674 44.4333 77.2008 44.1C77.3674 43.7333 77.5841 43.2333 77.8508 42.6C78.1508 41.9333 78.3508 41.4833 78.4508 41.25C79.3841 39.15 82.2508 33.6167 87.0508 24.65C93.6174 12.6833 99.6508 5.33333 105.151 2.6C105.951 2.2 106.751 2 107.551 2C108.484 2 108.951 2.43333 108.951 3.3C108.951 5.3 108.267 7.5 106.901 9.9C105.534 12.2667 103.867 14.45 101.901 16.45C99.9341 18.45 98.0008 20.2 96.1008 21.7C94.2341 23.2 92.6174 24.3333 91.2508 25.1C91.0508 25.1667 90.8674 25.3167 90.7008 25.55C89.2341 27.9167 87.8008 30.4667 86.4008 33.2C85.0008 35.9 83.9508 38.0333 83.2508 39.6L82.2508 41.9C82.0841 42.4 82.0008 42.7333 82.0008 42.9C82.0008 43.2 82.1174 43.35 82.3508 43.35C83.0174 43.35 84.3174 42.3833 86.2508 40.45ZM100.811 31.05C101.211 30.2167 101.411 29.4833 101.411 28.85C101.411 28.3167 101.244 28.05 100.911 28.05C100.711 28.05 100.477 28.1167 100.211 28.25C99.9772 28.35 99.7939 28.4667 99.6605 28.6L99.4105 28.8C98.3772 29.7 97.0772 31.35 95.5105 33.75C93.9772 36.1167 93.2105 37.6333 93.2105 38.3C93.2105 38.4333 93.2439 38.5 93.3105 38.5C93.5105 38.5 93.9439 38.3333 94.6105 38C95.3105 37.6667 96.2939 36.8833 97.5605 35.65C98.8605 34.4167 99.9439 32.8833 100.811 31.05ZM98.5605 42.5C100.327 40.8667 102.861 38.1667 106.161 34.4C106.261 34.3 106.344 34.25 106.411 34.25C106.477 34.25 106.511 34.3167 106.511 34.45C106.511 35.0833 106.261 35.7 105.761 36.3C103.294 39.0333 101.111 41.3167 99.2105 43.15C97.8105 44.55 96.1439 45.9 94.2105 47.2C92.2772 48.4667 90.6772 49.1 89.4105 49.1C87.8772 49.1 87.1105 48.0333 87.1105 45.9C87.1105 42.3667 88.4105 38.6667 91.0105 34.8C93.6439 30.9333 96.6772 28.3167 100.111 26.95C101.544 26.35 102.844 26.05 104.011 26.05C105.311 26.05 105.961 26.5667 105.961 27.6C105.961 29.5333 104.594 31.75 101.861 34.25C99.1272 36.75 96.0605 38.65 92.6605 39.95C92.5272 39.9833 92.4105 40.1 92.3105 40.3C91.8105 41.6667 91.5605 42.8833 91.5605 43.95C91.5605 45.15 92.0105 45.75 92.9105 45.75C94.3439 45.75 96.2272 44.6667 98.5605 42.5ZM113.966 37.65C113.699 37.65 113.566 37.55 113.566 37.35C113.566 37.25 113.616 37.1167 113.716 36.95C115.683 33.8833 116.666 31.7833 116.666 30.65C116.666 30.35 116.549 30.2 116.316 30.2C115.316 30.2 112.966 32.4667 109.266 37C108.166 38.4 107.133 39.85 106.166 41.35C105.233 42.85 104.583 44 104.216 44.8L103.616 45.95C103.216 46.75 102.599 47.4833 101.766 48.15C100.933 48.85 100.066 49.2 99.166 49.2C98.6993 49.2 98.466 49.0833 98.466 48.85C98.466 48.65 98.616 48.2333 98.916 47.6C99.1827 46.9667 99.516 46.2667 99.916 45.5C100.316 44.7333 100.716 43.9833 101.116 43.25C101.516 42.5167 101.849 41.9 102.116 41.4L102.566 40.65L107.816 31.5C109.849 27.6667 111.983 25.75 114.216 25.75C114.516 25.75 114.666 25.8667 114.666 26.1C114.666 26.4 113.933 27.65 112.466 29.85C111.033 32.0167 110.199 33.4 109.966 34C109.899 34.2 109.866 34.3167 109.866 34.35C109.866 34.4167 109.899 34.45 109.966 34.45C110.033 34.45 110.149 34.3667 110.316 34.2C112.816 31.3667 115.466 28.85 118.266 26.65C118.433 26.4833 118.799 26.25 119.366 25.95C119.933 25.6167 120.433 25.45 120.866 25.45C121.499 25.45 121.816 26 121.816 27.1C121.816 28.3 121.416 29.7333 120.616 31.4C119.816 33.0667 118.733 34.5333 117.366 35.8L117.166 36C117.033 36.1 116.883 36.2167 116.716 36.35C116.583 36.45 116.399 36.5833 116.166 36.75C115.933 36.9167 115.699 37.0667 115.466 37.2C115.233 37.3 114.983 37.4 114.716 37.5C114.449 37.6 114.199 37.65 113.966 37.65ZM126.766 40.9L128.866 36.8C128.866 36.7 128.832 36.65 128.766 36.65C128.699 36.65 128.616 36.7 128.516 36.8C127.282 38.2333 125.982 39.65 124.616 41.05C123.249 42.4167 122.199 43.4333 121.466 44.1L120.366 45.1C117.866 47.4667 116.099 48.65 115.066 48.65C114.599 48.65 114.366 48.35 114.366 47.75C114.366 47.0833 114.632 46.0833 115.166 44.75C115.699 43.3833 116.232 42.2 116.766 41.2L117.566 39.65C120.366 34.4167 122.432 30.9167 123.766 29.15C124.432 28.2833 125.249 27.5667 126.216 27C127.182 26.4 127.932 26.1 128.466 26.1C128.799 26.1 128.966 26.2167 128.966 26.45C128.966 26.5833 128.899 26.7667 128.766 27C128.699 27.1333 128.016 28.25 126.716 30.35C125.416 32.4167 124.366 34.2 123.566 35.7C121.366 39.7333 120.266 42.05 120.266 42.65C120.266 42.8833 120.366 43 120.566 43C120.866 43 121.382 42.7 122.116 42.1C124.282 40.2333 126.666 37.7167 129.266 34.55C130.699 33.0167 132.199 31.0167 133.766 28.55C134.199 27.8833 134.832 27.3167 135.666 26.85C136.532 26.35 137.316 26.1 138.016 26.1C138.316 26.1 138.466 26.2333 138.466 26.5L138.066 27.45C137.599 28.2833 136.549 30.1167 134.916 32.95C133.316 35.75 132.416 37.3333 132.216 37.7C131.949 38.2 131.332 39.2833 130.366 40.95C129.432 42.5833 128.766 43.75 128.366 44.45C130.466 42.75 132.199 41.2833 133.566 40.05C135.032 38.5167 136.749 36.6333 138.716 34.4C138.816 34.3 138.899 34.25 138.966 34.25C139.032 34.25 139.066 34.3167 139.066 34.45C139.066 35.0833 138.816 35.7 138.316 36.3C136.849 37.9 135.582 39.2667 134.516 40.4C133.116 41.8667 130.616 44 127.016 46.8L125.716 49.2C119.282 61.0333 114.849 68.7333 112.416 72.3C112.182 72.6667 111.882 73.1 111.516 73.6C111.149 74.1333 110.549 74.8333 109.716 75.7C108.882 76.6 108.216 77.05 107.716 77.05C106.916 77.05 106.516 75.9 106.516 73.6C106.516 70.2 107.732 66.5 110.166 62.5C112.799 58.2 116.866 53.7833 122.366 49.25C123.466 47.25 124.932 44.4667 126.766 40.9ZM111.416 62.4C111.149 62.8 110.832 63.3167 110.466 63.95C110.099 64.6167 109.599 65.7333 108.966 67.3C108.332 68.9 108.016 70.2333 108.016 71.3C108.016 71.8667 108.116 72.15 108.316 72.15C108.482 72.15 108.732 71.9833 109.066 71.65C109.399 71.35 109.682 71.0333 109.916 70.7L110.266 70.2C113.566 65.0333 117.149 58.8667 121.016 51.7C116.682 55.5 113.482 59.0667 111.416 62.4ZM166.169 36C165.302 37.4667 164.252 38.95 163.019 40.45C161.819 41.9167 160.452 43.35 158.919 44.75C157.385 46.1167 155.702 47.2333 153.869 48.1C152.035 48.9667 150.252 49.4 148.519 49.4C145.752 49.4 144.369 47.3333 144.369 43.2C144.369 37.9667 145.885 32.4833 148.919 26.75C151.985 21.0167 155.885 16.3333 160.619 12.7C160.919 12.4667 161.319 12.2 161.819 11.9C162.352 11.5667 163.319 11.1333 164.719 10.6C166.152 10.0333 167.452 9.75 168.619 9.75C169.519 9.75 170.302 9.88333 170.969 10.15C171.035 10.1833 171.119 10.2 171.219 10.2C171.452 10.2 171.635 10.0833 171.769 9.85C172.469 9.28333 173.585 9 175.119 9H175.519C175.985 9 176.219 9.23333 176.219 9.7C176.219 10.4333 175.669 11.6 174.569 13.2C173.502 14.8 172.502 16.15 171.569 17.25C170.635 18.35 169.802 19.3 169.069 20.1C167.835 21.4 166.969 22.05 166.469 22.05C166.235 22.05 166.119 21.8833 166.119 21.55C166.119 20.3833 167.069 18.1 168.969 14.7C169.002 14.6333 169.169 14.3667 169.469 13.9C169.769 13.4333 169.985 13.05 170.119 12.75C170.252 12.4167 170.319 12.1167 170.319 11.85C170.319 11.2833 169.869 11 168.969 11C168.235 11 167.419 11.2333 166.519 11.7C165.652 12.1667 164.969 12.6333 164.469 13.1L163.669 13.8C160.135 17.0667 156.935 21.3833 154.069 26.75C151.235 32.0833 149.819 36.9333 149.819 41.3C149.819 44.4667 150.819 46.05 152.819 46.05C153.085 46.05 153.385 46.0167 153.719 45.95C154.085 45.8833 154.685 45.6667 155.519 45.3C156.385 44.9 157.219 44.3667 158.019 43.7C158.852 43 159.802 41.95 160.869 40.55C161.969 39.1167 163.002 37.45 163.969 35.55C164.235 35.0167 164.585 34.2667 165.019 33.3C165.452 32.3 165.785 31.5667 166.019 31.1C166.285 30.6333 166.502 30.4 166.669 30.4C166.902 30.4 167.085 30.6167 167.219 31.05C167.352 31.45 167.419 31.8 167.419 32.1C167.419 33.3333 167.002 34.6333 166.169 36ZM179.443 44.85C176.676 47.3833 174.776 48.65 173.743 48.65C173.276 48.65 173.043 48.3833 173.043 47.85C173.043 47.1833 173.326 46.1667 173.893 44.8C174.493 43.4333 175.093 42.2333 175.693 41.2L176.593 39.65C176.726 39.4167 176.793 39.2667 176.793 39.2C176.793 39.1333 176.759 39.1 176.693 39.1C176.559 39.1 176.309 39.2833 175.943 39.65C174.943 40.75 173.793 41.9333 172.493 43.2C171.226 44.4333 170.193 45.4 169.393 46.1L168.243 47.1C166.943 48.1 165.943 48.6 165.243 48.6C164.509 48.6 164.143 48.0333 164.143 46.9C164.143 46.3333 164.309 45.4667 164.643 44.3C164.943 43.1333 165.176 42.35 165.343 41.95C166.109 40.0833 167.059 38.2667 168.193 36.5C169.359 34.7333 170.726 33.05 172.293 31.45C173.859 29.8167 175.676 28.5 177.743 27.5C179.843 26.5 182.009 26 184.243 26C186.109 26 187.043 26.2833 187.043 26.85C187.043 27.1833 186.626 27.35 185.793 27.35C182.726 27.35 179.843 28.6667 177.143 31.3C174.476 33.9 172.309 36.9 170.643 40.3C170.176 41.2333 169.943 42.0167 169.943 42.65C169.943 43.0167 170.059 43.2 170.293 43.2C170.693 43.2 171.209 42.9167 171.843 42.35C172.243 41.9833 172.776 41.5 173.443 40.9C174.143 40.3 175.259 39.15 176.793 37.45C178.326 35.75 179.543 34.1667 180.443 32.7C180.576 32.4333 180.776 32.1167 181.043 31.75C181.343 31.3833 181.893 30.9 182.693 30.3C183.493 29.6667 184.293 29.35 185.093 29.35C185.526 29.35 185.743 29.4667 185.743 29.7C185.743 29.7667 185.693 29.8833 185.593 30.05C185.459 30.3167 185.076 30.9833 184.443 32.05C183.843 33.1167 183.276 34.1333 182.743 35.1C182.209 36.0333 181.643 37.0667 181.043 38.2C180.443 39.3 179.959 40.25 179.593 41.05C179.259 41.85 179.093 42.3833 179.093 42.65C179.093 42.85 179.176 42.95 179.343 42.95C179.843 42.95 181.059 41.9833 182.993 40.05C184.459 38.5167 186.176 36.6333 188.143 34.4C188.243 34.3 188.326 34.25 188.393 34.25C188.459 34.25 188.493 34.3167 188.493 34.45C188.493 35.0833 188.243 35.7 187.743 36.3C184.476 39.9333 181.709 42.7833 179.443 44.85ZM195.948 37.65C195.682 37.65 195.548 37.55 195.548 37.35C195.548 37.25 195.598 37.1167 195.698 36.95C197.665 33.8833 198.648 31.7833 198.648 30.65C198.648 30.35 198.532 30.2 198.298 30.2C197.298 30.2 194.948 32.4667 191.248 37C190.148 38.4 189.115 39.85 188.148 41.35C187.215 42.85 186.565 44 186.198 44.8L185.598 45.95C185.198 46.75 184.582 47.4833 183.748 48.15C182.915 48.85 182.048 49.2 181.148 49.2C180.682 49.2 180.448 49.0833 180.448 48.85C180.448 48.65 180.598 48.2333 180.898 47.6C181.165 46.9667 181.498 46.2667 181.898 45.5C182.298 44.7333 182.698 43.9833 183.098 43.25C183.498 42.5167 183.832 41.9 184.098 41.4L184.548 40.65L189.798 31.5C191.832 27.6667 193.965 25.75 196.198 25.75C196.498 25.75 196.648 25.8667 196.648 26.1C196.648 26.4 195.915 27.65 194.448 29.85C193.015 32.0167 192.182 33.4 191.948 34C191.882 34.2 191.848 34.3167 191.848 34.35C191.848 34.4167 191.882 34.45 191.948 34.45C192.015 34.45 192.132 34.3667 192.298 34.2C194.798 31.3667 197.448 28.85 200.248 26.65C200.415 26.4833 200.782 26.25 201.348 25.95C201.915 25.6167 202.415 25.45 202.848 25.45C203.482 25.45 203.798 26 203.798 27.1C203.798 28.3 203.398 29.7333 202.598 31.4C201.798 33.0667 200.715 34.5333 199.348 35.8L199.148 36C199.015 36.1 198.865 36.2167 198.698 36.35C198.565 36.45 198.382 36.5833 198.148 36.75C197.915 36.9167 197.682 37.0667 197.448 37.2C197.215 37.3 196.965 37.4 196.698 37.5C196.432 37.6 196.182 37.65 195.948 37.65ZM204.698 42.65C204.898 42.4833 205.165 42.25 205.498 41.95C205.865 41.6167 206.548 40.95 207.548 39.95C208.548 38.9167 209.498 37.8667 210.398 36.8C211.331 35.7 212.348 34.35 213.448 32.75C214.581 31.15 215.548 29.5667 216.348 28C216.381 27.9333 216.398 27.8667 216.398 27.8L216.348 27.65C216.115 27.5167 215.848 27.45 215.548 27.45C214.115 27.45 212.331 28.5167 210.198 30.65C208.098 32.7833 206.298 35.0833 204.798 37.55C203.331 39.9833 202.598 41.7333 202.598 42.8C202.598 43.2667 202.781 43.5 203.148 43.5C203.548 43.5 204.065 43.2167 204.698 42.65ZM215.748 40.45C217.148 39.05 218.998 37.0333 221.298 34.4C221.398 34.3 221.481 34.25 221.548 34.25C221.615 34.25 221.648 34.3167 221.648 34.45C221.648 35.0833 221.398 35.7 220.898 36.3C218.431 39.0333 216.248 41.3167 214.348 43.15C210.415 46.8167 207.831 48.65 206.598 48.65C206.131 48.65 205.898 48.4 205.898 47.9C205.898 47.2667 206.215 46.2667 206.848 44.9C207.481 43.5333 208.131 42.3167 208.798 41.25L209.748 39.65C209.881 39.4833 209.948 39.3333 209.948 39.2C209.948 39.1333 209.915 39.1 209.848 39.1C209.715 39.1 209.531 39.2167 209.298 39.45C208.265 40.65 207.081 41.8833 205.748 43.15C204.415 44.4167 203.331 45.4 202.498 46.1L201.298 47.1C199.965 48.1333 198.965 48.65 198.298 48.65L198.098 48.6C197.531 48.5667 197.248 48.0667 197.248 47.1C197.248 44.5667 198.131 41.6833 199.898 38.45C201.698 35.1833 204.015 32.35 206.848 29.95C209.681 27.55 212.415 26.35 215.048 26.35C215.315 26.35 215.565 26.3833 215.798 26.45C216.031 26.4833 216.198 26.5167 216.298 26.55C216.431 26.5833 216.548 26.6333 216.648 26.7L216.798 26.75C216.865 26.75 216.948 26.7 217.048 26.6C223.215 15.4667 227.948 7.78333 231.248 3.55C232.248 2.21667 232.965 1.55 233.398 1.55C233.565 1.55 233.648 1.68333 233.648 1.95C233.648 2.65 233.115 4.08333 232.048 6.25C226.915 15.65 223.315 22.1667 221.248 25.8C217.548 32.4 215.298 36.3667 214.498 37.7C212.865 40.5 212.048 42.2 212.048 42.8C212.048 43.0333 212.148 43.15 212.348 43.15C212.515 43.15 212.698 43.1 212.898 43C213.131 42.8667 213.381 42.6833 213.648 42.45C213.915 42.2167 214.148 42 214.348 41.8C214.581 41.6 214.848 41.35 215.148 41.05C215.448 40.75 215.648 40.55 215.748 40.45Z" transform="translate(6 -1)" fill="#b7b7b7"/>
<path d="M5.654 7.58V8.097C5.654 8.85967 5.43767 9.38767 5.005 9.681C4.57233 9.967 3.89767 10.11 2.981 10.11C2.39433 10.11 1.66833 10.0513 0.803 9.934V9.043C1.66833 9.22633 2.41633 9.318 3.047 9.318C3.553 9.318 3.938 9.263 4.202 9.153C4.47333 9.03567 4.609 8.80467 4.609 8.46V7.536C4.609 7.23533 4.521 7.02267 4.345 6.898C4.17633 6.766 3.86833 6.7 3.421 6.7H2.585C1.86633 6.7 1.364 6.557 1.078 6.271C0.799333 5.97767 0.66 5.54867 0.66 4.984V4.412C0.66 3.84733 0.858 3.42933 1.254 3.158C1.65733 2.88667 2.39433 2.751 3.465 2.751C3.97833 2.751 4.59067 2.79133 5.302 2.872V3.675C4.488 3.55033 3.85 3.488 3.388 3.488C2.706 3.488 2.25133 3.55767 2.024 3.697C1.804 3.829 1.694 4.05633 1.694 4.379V5.193C1.694 5.44233 1.782 5.62567 1.958 5.743C2.134 5.853 2.44567 5.908 2.893 5.908H3.751C4.49167 5.908 4.994 6.04367 5.258 6.315C5.522 6.579 5.654 7.00067 5.654 7.58ZM12.6537 10H11.5867V2.861H12.6537V10ZM25.0028 10H23.7158L19.8328 4.005V10H18.8978V2.861H20.1848L24.0678 8.757V2.861H25.0028V10ZM36.032 9.901C35.394 10.0403 34.7267 10.11 34.03 10.11C32.028 10.11 31.027 9.46467 31.027 8.174V4.786C31.027 3.422 32.028 2.74 34.03 2.74C34.6974 2.74 35.35 2.80967 35.988 2.949V3.741C35.284 3.565 34.6387 3.477 34.052 3.477C33.7734 3.477 33.5277 3.49533 33.315 3.532C33.1024 3.56133 32.8934 3.62 32.688 3.708C32.4827 3.78867 32.325 3.92067 32.215 4.104C32.105 4.28 32.05 4.50367 32.05 4.775V8.119C32.05 8.94033 32.732 9.351 34.096 9.351C34.6827 9.351 35.328 9.263 36.032 9.087V9.901ZM46.762 10H41.856V2.861H46.652V3.609H42.923V5.941H46.289V6.689H42.923V9.252H46.762V10Z" transform="translate(53 58)" fill="#b7b7b7"/>
<path d="M4.466 10H3.509V3.851L1.342 5.27V4.368L3.52 2.861H4.466V10ZM17.4799 4.566V8.174C17.4799 8.878 17.2709 9.37667 16.8529 9.67C16.4422 9.96333 15.7785 10.11 14.8619 10.11C14.2385 10.11 13.6189 10.0697 13.0029 9.989V9.252C13.6849 9.37667 14.2935 9.439 14.8289 9.439C15.4595 9.439 15.8959 9.34 16.1379 9.142C16.3799 8.93667 16.5009 8.56267 16.5009 8.02V7.085H14.8839C14.5392 7.085 14.2715 7.08133 14.0809 7.074C13.8902 7.05933 13.6885 7.02633 13.4759 6.975C13.2632 6.92367 13.1055 6.84667 13.0029 6.744C12.9075 6.64133 12.8269 6.49833 12.7609 6.315C12.6949 6.13167 12.6619 5.90067 12.6619 5.622V4.566C12.6619 4.17 12.7242 3.84367 12.8489 3.587C12.9735 3.33033 13.1605 3.14333 13.4099 3.026C13.6592 2.90867 13.9085 2.83167 14.1579 2.795C14.4072 2.75833 14.7152 2.74 15.0819 2.74C15.3825 2.74 15.6319 2.751 15.8299 2.773C16.0352 2.78767 16.2515 2.83167 16.4789 2.905C16.7062 2.971 16.8859 3.07 17.0179 3.202C17.1499 3.32667 17.2599 3.50633 17.3479 3.741C17.4359 3.96833 17.4799 4.24333 17.4799 4.566ZM16.5009 4.511C16.5009 4.03433 16.3945 3.73 16.1819 3.598C15.9765 3.45867 15.6025 3.389 15.0599 3.389C14.5172 3.389 14.1432 3.455 13.9379 3.587C13.7399 3.719 13.6409 4.027 13.6409 4.511V5.589C13.6409 5.941 13.7289 6.172 13.9049 6.282C14.0882 6.392 14.4769 6.447 15.0709 6.447H16.5009V4.511ZM29.3607 4.566V8.174C29.3607 8.878 29.1517 9.37667 28.7337 9.67C28.3231 9.96333 27.6594 10.11 26.7427 10.11C26.1194 10.11 25.4997 10.0697 24.8837 9.989V9.252C25.5657 9.37667 26.1744 9.439 26.7097 9.439C27.3404 9.439 27.7767 9.34 28.0187 9.142C28.2607 8.93667 28.3817 8.56267 28.3817 8.02V7.085H26.7647C26.4201 7.085 26.1524 7.08133 25.9617 7.074C25.7711 7.05933 25.5694 7.02633 25.3567 6.975C25.1441 6.92367 24.9864 6.84667 24.8837 6.744C24.7884 6.64133 24.7077 6.49833 24.6417 6.315C24.5757 6.13167 24.5427 5.90067 24.5427 5.622V4.566C24.5427 4.17 24.6051 3.84367 24.7297 3.587C24.8544 3.33033 25.0414 3.14333 25.2907 3.026C25.5401 2.90867 25.7894 2.83167 26.0387 2.795C26.2881 2.75833 26.5961 2.74 26.9627 2.74C27.2634 2.74 27.5127 2.751 27.7107 2.773C27.9161 2.78767 28.1324 2.83167 28.3597 2.905C28.5871 2.971 28.7667 3.07 28.8987 3.202C29.0307 3.32667 29.1407 3.50633 29.2287 3.741C29.3167 3.96833 29.3607 4.24333 29.3607 4.566ZM28.3817 4.511C28.3817 4.03433 28.2754 3.73 28.0627 3.598C27.8574 3.45867 27.4834 3.389 26.9407 3.389C26.3981 3.389 26.0241 3.455 25.8187 3.587C25.6207 3.719 25.5217 4.027 25.5217 4.511V5.589C25.5217 5.941 25.6097 6.172 25.7857 6.282C25.9691 6.392 26.3577 6.447 26.9517 6.447H28.3817V4.511ZM41.2416 4.566V8.174C41.2416 8.878 41.0326 9.37667 40.6146 9.67C40.2039 9.96333 39.5402 10.11 38.6236 10.11C38.0002 10.11 37.3806 10.0697 36.7646 9.989V9.252C37.4466 9.37667 38.0552 9.439 38.5906 9.439C39.2212 9.439 39.6576 9.34 39.8996 9.142C40.1416 8.93667 40.2626 8.56267 40.2626 8.02V7.085H38.6456C38.3009 7.085 38.0332 7.08133 37.8426 7.074C37.6519 7.05933 37.4502 7.02633 37.2376 6.975C37.0249 6.92367 36.8672 6.84667 36.7646 6.744C36.6692 6.64133 36.5886 6.49833 36.5226 6.315C36.4566 6.13167 36.4236 5.90067 36.4236 5.622V4.566C36.4236 4.17 36.4859 3.84367 36.6106 3.587C36.7352 3.33033 36.9222 3.14333 37.1716 3.026C37.4209 2.90867 37.6702 2.83167 37.9196 2.795C38.1689 2.75833 38.4769 2.74 38.8436 2.74C39.1442 2.74 39.3936 2.751 39.5916 2.773C39.7969 2.78767 40.0132 2.83167 40.2406 2.905C40.4679 2.971 40.6476 3.07 40.7796 3.202C40.9116 3.32667 41.0216 3.50633 41.1096 3.741C41.1976 3.96833 41.2416 4.24333 41.2416 4.566ZM40.2626 4.511C40.2626 4.03433 40.1562 3.73 39.9436 3.598C39.7382 3.45867 39.3642 3.389 38.8216 3.389C38.2789 3.389 37.9049 3.455 37.6996 3.587C37.5016 3.719 37.4026 4.027 37.4026 4.511V5.589C37.4026 5.941 37.4906 6.172 37.6666 6.282C37.8499 6.392 38.2386 6.447 38.8326 6.447H40.2626V4.511Z" transform="translate(139 58)" fill="#b7b7b7"/>
</svg>
