<?xml version="1.0" encoding="utf-8"?>
<!-- Generator: Adobe Illustrator 16.0.0, SVG Export Plug-In . SVG Version: 6.00 Build 0)  -->
<!DOCTYPE svg PUBLIC "-//W3C//DTD SVG 1.1//EN" "http://www.w3.org/Graphics/SVG/1.1/DTD/svg11.dtd">
<svg version="1.1" id="Слой_1" xmlns="http://www.w3.org/2000/svg" xmlns:xlink="http://www.w3.org/1999/xlink" x="0px" y="0px"
	 width="22.888px" height="22.928px" viewBox="1.112 0 22.888 22.928" enable-background="new 1.112 0 22.888 22.928"
	 xml:space="preserve">
<g>
	<path d="M20.41,13.899c-0.884-0.117-1.755-0.335-2.588-0.646c-1.092-0.411-2.337-0.144-3.17,0.681l-0.717,0.717
		c-1.844-1.176-3.41-2.742-4.585-4.586l0.721-0.721c0.821-0.83,1.086-2.072,0.676-3.162C10.436,5.345,10.218,4.473,10.1,3.58
		C9.891,2.094,8.632,0.956,7.11,1h-3C4.021,1,3.932,1.004,3.842,1.012c-0.798,0.072-1.52,0.451-2.034,1.066
		C1.295,2.694,1.052,3.472,1.125,4.286c0.343,3.231,1.458,6.381,3.22,9.1c1.604,2.523,3.785,4.705,6.3,6.303
		c2.715,1.762,5.85,2.877,9.081,3.228c0.094,0.009,0.188,0.012,0.285,0.012c0.802-0.003,1.554-0.317,2.118-0.887
		s0.873-1.323,0.87-2.121v-2.988C23.031,15.412,21.923,14.11,20.41,13.899z M21,16.92v3.004c0.001,0.268-0.103,0.519-0.29,0.709
		c-0.188,0.188-0.437,0.293-0.776,0.293c-0.002,0-0.004,0-0.006,0c-2.906-0.315-5.739-1.323-8.202-2.92
		c-2.277-1.447-4.245-3.415-5.697-5.7C4.433,9.841,3.424,6.995,3.116,4.09c-0.024-0.266,0.057-0.525,0.228-0.73
		C3.515,3.154,3.756,3.028,4.11,3h3.01c0.003,0,0.006,0,0.01,0C7.625,3,8.05,3.368,8.119,3.851c0.136,1.033,0.39,2.052,0.755,3.032
		C9.011,7.247,8.923,7.66,8.653,7.933l-1.27,1.27c-0.318,0.318-0.385,0.81-0.162,1.201c1.512,2.659,3.716,4.863,6.375,6.375
		c0.388,0.222,0.882,0.156,1.201-0.162l1.266-1.266c0.277-0.275,0.69-0.364,1.058-0.226c0.976,0.365,1.994,0.619,3.021,0.755
		c0.503,0.07,0.872,0.506,0.859,1.014C21,16.903,21,16.911,21,16.92z"/>
	<path d="M18.019,9.142c0.093,0.478,0.512,0.809,0.98,0.809c0.063,0,0.128-0.006,0.192-0.019c0.542-0.105,0.896-0.631,0.79-1.173
		c-0.47-2.41-2.33-4.271-4.74-4.74c-0.54-0.109-1.068,0.248-1.173,0.79c-0.105,0.542,0.248,1.067,0.79,1.173
		C16.465,6.295,17.705,7.535,18.019,9.142z"/>
	<path d="M15.16,0.006c-0.54-0.06-1.044,0.334-1.104,0.883s0.335,1.043,0.884,1.104c3.74,0.416,6.646,3.318,7.066,7.058
		c0.058,0.511,0.49,0.888,0.993,0.888c0.037,0,0.075-0.002,0.112-0.006c0.549-0.062,0.944-0.557,0.883-1.105
		C23.468,4.153,19.836,0.525,15.16,0.006z"/>
</g>
</svg>
